<?xml version="1.0" encoding="iso-8859-1"?>
<!-- Generator: Adobe Illustrator 16.0.0, SVG Export Plug-In . SVG Version: 6.00 Build 0)  -->
<!DOCTYPE svg PUBLIC "-//W3C//DTD SVG 1.1//EN" "http://www.w3.org/Graphics/SVG/1.1/DTD/svg11.dtd">
<svg version="1.1" id="Capa_1" xmlns="http://www.w3.org/2000/svg" xmlns:xlink="http://www.w3.org/1999/xlink" x="0px" y="0px"
	 width="45.78px" height="45.78px" viewBox="0 0 45.78 45.78" style="enable-background:new 0 0 45.78 45.78;" xml:space="preserve"
	>
<g>
	<g>
		<path d="M27.259,21.076h-8.721c-0.724,0-1.312,0.609-1.312,1.333v15.407c0,0.724,0.588,1.318,1.312,1.318h8.721
			c0.723,0,1.293-0.595,1.293-1.318V22.408C28.552,21.684,27.981,21.076,27.259,21.076z M25.099,26.979
			c0.256-0.258,0.676-0.258,0.933,0c0.258,0.258,0.258,0.676,0,0.934l-0.651,0.652c-0.236-0.377-0.555-0.697-0.934-0.934
			L25.099,26.979z M25.259,30.112c0,1.303-1.059,2.36-2.361,2.36c-1.304,0-2.36-1.058-2.36-2.36c0-1.304,1.057-2.36,2.36-2.36
			C24.201,27.752,25.259,28.809,25.259,30.112z M22.255,26.342c0-0.365,0.29-0.66,0.655-0.66c0.365,0,0.656,0.295,0.656,0.66v0.92
			c-0.219-0.049-0.43-0.074-0.656-0.074s-0.48,0.025-0.655,0.074V26.342z M19.764,26.979c0.258-0.258,0.676-0.258,0.934,0
			l0.653,0.652c-0.379,0.235-0.697,0.555-0.934,0.932l-0.653-0.651C19.508,27.654,19.508,27.237,19.764,26.979z M18.468,30.127
			c0-0.365,0.295-0.656,0.658-0.656h0.921c-0.048,0.219-0.074,0.43-0.074,0.656s0.026,0.438,0.074,0.655h-0.921
			C18.763,30.782,18.468,30.491,18.468,30.127z M20.698,33.244c-0.128,0.129-0.296,0.193-0.467,0.193
			c-0.168,0-0.337-0.064-0.467-0.193c-0.256-0.258-0.256-0.675,0-0.934l0.653-0.651c0.236,0.377,0.555,0.696,0.934,0.935
			L20.698,33.244z M23.567,33.883c0,0.364-0.291,0.66-0.656,0.66c-0.365,0-0.655-0.296-0.655-0.66v-0.92
			c0.175,0.049,0.43,0.074,0.655,0.074c0.227,0,0.438-0.025,0.656-0.074V33.883z M26.031,33.244
			c-0.128,0.129-0.298,0.193-0.466,0.193c-0.17,0-0.338-0.064-0.467-0.193l-0.652-0.65c0.379-0.236,0.697-0.557,0.934-0.934
			l0.651,0.65C26.288,32.569,26.288,32.987,26.031,33.244z M26.668,30.782h-0.919c0.048-0.218,0.074-0.429,0.074-0.655
			c0-0.229-0.026-0.438-0.074-0.656h0.919c0.365,0,0.66,0.293,0.66,0.656C27.329,30.491,27.034,30.782,26.668,30.782z"/>
		<path d="M29.913,15.652c-1.553,0-2.805-1.259-2.805-2.811v-6.85h-8.438v6.85c0,1.553-1.251,2.812-2.805,2.812
			c-2.439,0-4.41,1.979-4.41,4.418v21.487c0,2.33,1.884,4.222,4.213,4.222h14.46c2.329,0,4.195-1.892,4.195-4.222V20.071
			C34.324,17.631,32.353,15.652,29.913,15.652z M30.606,37.805c0,1.846-1.494,3.34-3.34,3.34h-8.711
			c-1.844,0-3.339-1.494-3.339-3.34v-15.4c0-1.844,1.495-3.339,3.339-3.339h8.711c1.846,0,3.34,1.495,3.34,3.339V37.805z"/>
		<path d="M27.445,0h-9.11c-0.587,0-1.063,0.476-1.063,1.063v2.683c0,0.587,0.477,1.063,1.063,1.063h9.11
			c0.587,0,1.063-0.476,1.063-1.063V1.064C28.509,0.476,28.032,0,27.445,0z"/>
	</g>
</g>
<g>
</g>
<g>
</g>
<g>
</g>
<g>
</g>
<g>
</g>
<g>
</g>
<g>
</g>
<g>
</g>
<g>
</g>
<g>
</g>
<g>
</g>
<g>
</g>
<g>
</g>
<g>
</g>
<g>
</g>
</svg>
