<?xml version="1.0" encoding="iso-8859-1"?>
<!-- Generator: Adobe Illustrator 16.0.0, SVG Export Plug-In . SVG Version: 6.00 Build 0)  -->
<!DOCTYPE svg PUBLIC "-//W3C//DTD SVG 1.1//EN" "http://www.w3.org/Graphics/SVG/1.1/DTD/svg11.dtd">
<svg version="1.1" id="Capa_1" xmlns="http://www.w3.org/2000/svg" xmlns:xlink="http://www.w3.org/1999/xlink" x="0px" y="0px"
	 width="46.343px" height="46.343px" viewBox="0 0 46.343 46.343" style="enable-background:new 0 0 46.343 46.343;"
	 xml:space="preserve">
<g>
	<g>
		<g>
			<path d="M36.731,31.127c-2.305,1.361-7.507,2.313-13.562,2.313c-6.058,0-11.256-0.951-13.561-2.313
				c-0.703,0-1.27,0.568-1.27,1.271v0.204c0,0.511,0.391,0.933,0.899,0.966c5.987,0.418,10.838,4.945,11.75,10.782
				c0.179,1.146,1.165,1.992,2.325,1.992h0.002c1.012,0,1.863-0.746,2-1.748c0.812-5.944,5.707-10.594,11.767-11.024
				c0.521-0.037,0.925-0.47,0.925-0.989v-0.183C38.004,31.695,37.433,31.127,36.731,31.127z"/>
			<path d="M21.426,22.518h3.481c2.987,0.667,8.821,1.925,10.869-0.711c3.569-4.602-0.949-7.941-3.521-10.063l-1.778-6.229
				C29.549,2.268,26.542,0,23.165,0s-6.383,2.267-7.311,5.514l-1.779,6.228c-2.572,2.123-7.089,5.464-3.519,10.065
				C12.603,24.443,18.438,23.185,21.426,22.518z M17.772,6.061c0.685-2.396,2.902-4.069,5.394-4.069
				c2.491,0,4.709,1.673,5.394,4.069l1.988,6.957c-0.348,1.212-0.986,2.664-1.87,4.137c-0.808,1.347-1.691,2.494-2.532,3.365h-5.958
				c-0.838-0.871-1.724-2.019-2.531-3.365c-0.884-1.474-1.524-2.924-1.871-4.137L17.772,6.061z"/>
		</g>
	</g>
</g>
<g>
</g>
<g>
</g>
<g>
</g>
<g>
</g>
<g>
</g>
<g>
</g>
<g>
</g>
<g>
</g>
<g>
</g>
<g>
</g>
<g>
</g>
<g>
</g>
<g>
</g>
<g>
</g>
<g>
</g>
</svg>
