<?xml version="1.0" encoding="iso-8859-1"?>
<!-- Generator: Adobe Illustrator 16.0.0, SVG Export Plug-In . SVG Version: 6.00 Build 0)  -->
<!DOCTYPE svg PUBLIC "-//W3C//DTD SVG 1.1//EN" "http://www.w3.org/Graphics/SVG/1.1/DTD/svg11.dtd">
<svg version="1.1" id="Capa_1" xmlns="http://www.w3.org/2000/svg" xmlns:xlink="http://www.w3.org/1999/xlink" x="0px" y="0px"
	 width="26.746px" height="26.745px" viewBox="0 0 26.746 26.745" style="enable-background:new 0 0 26.746 26.745;"
	 xml:space="preserve">
<g>
	<g>
		<path style="fill:#333333;" d="M26.188,22.6l-4.806-4.807c-0.605-0.605-1.518-0.709-2.235-0.327l-0.912-0.911
			c1.379-1.741,2.208-3.939,2.208-6.334C20.443,4.575,15.868,0,10.222,0C4.577,0,0,4.574,0,10.22S4.575,20.44,10.221,20.44
			c2.394,0,4.589-0.829,6.332-2.206l0.913,0.912c-0.381,0.719-0.277,1.628,0.329,2.234l4.804,4.808c0.744,0.742,1.947,0.742,2.692,0
			l0.896-0.897C26.931,24.549,26.931,23.343,26.188,22.6z M1.89,10.22c0-4.602,3.729-8.33,8.332-8.33
			c4.603,0,8.332,3.728,8.332,8.33c0,4.602-3.729,8.331-8.332,8.331C5.619,18.551,1.89,14.821,1.89,10.22z"/>
		<rect x="5.013" y="9.178" style="fill:#333333;" width="10.417" height="2.083"/>
	</g>
</g>
<g>
</g>
<g>
</g>
<g>
</g>
<g>
</g>
<g>
</g>
<g>
</g>
<g>
</g>
<g>
</g>
<g>
</g>
<g>
</g>
<g>
</g>
<g>
</g>
<g>
</g>
<g>
</g>
<g>
</g>
</svg>
